<svg xmlns="http://www.w3.org/2000/svg" xmlns:xlink="http://www.w3.org/1999/xlink" width="500" zoomAndPan="magnify" viewBox="0 0 375 374.999991" height="500" preserveAspectRatio="xMidYMid meet" version="1.0"><defs><g/></defs><g fill="#000000" fill-opacity="1"><g transform="translate(136.777092, 203.516252)"><g><path d="M 3.34375 -1.003906 L 3.34375 0 L 19.65625 0 C 23.199219 0 26.472656 -1.269531 28.882812 -3.542969 C 31.355469 -5.882812 32.757812 -8.957031 32.757812 -12.433594 C 32.757812 -15.910156 31.355469 -19.054688 28.882812 -21.394531 C 27.078125 -23.066406 24.804688 -24.203125 22.328125 -24.667969 C 23.933594 -25.203125 25.339844 -26.074219 26.609375 -27.210938 C 28.949219 -29.28125 30.21875 -32.359375 30.21875 -35.566406 C 30.21875 -38.777344 28.882812 -41.785156 26.609375 -43.921875 C 24.335938 -46.0625 21.191406 -47.265625 17.917969 -47.265625 L 3.34375 -47.265625 L 3.34375 -46.261719 L 4.210938 -46.261719 C 5.414062 -46.195312 7.621094 -45.863281 7.621094 -44.660156 L 7.621094 -2.605469 C 7.621094 -1.402344 5.414062 -1.070312 4.144531 -1.003906 Z M 18.453125 -24.871094 L 10.027344 -24.871094 L 10.027344 -44.660156 C 10.027344 -45.863281 12.234375 -46.195312 13.4375 -46.261719 L 17.917969 -46.261719 C 23.265625 -46.261719 28.011719 -41.25 28.011719 -35.566406 C 28.011719 -30.085938 23.601562 -25.203125 18.453125 -24.871094 Z M 19.65625 -1.003906 L 13.4375 -1.003906 C 12.234375 -1.070312 10.027344 -1.402344 10.027344 -2.605469 L 10.027344 -23.933594 L 17.851562 -23.933594 L 17.851562 -23.867188 L 17.917969 -23.867188 C 18.117188 -23.867188 18.316406 -23.933594 18.453125 -23.933594 L 19.589844 -23.933594 L 19.589844 -23.867188 L 19.65625 -23.867188 C 22.464844 -23.867188 25.203125 -22.664062 27.277344 -20.390625 C 29.28125 -18.25 30.484375 -15.308594 30.484375 -12.433594 C 30.484375 -9.558594 29.28125 -6.683594 27.277344 -4.480469 C 25.203125 -2.207031 22.464844 -1.003906 19.65625 -1.003906 Z M 19.65625 -1.003906 "/></g></g></g><g fill="#000000" fill-opacity="1"><g transform="translate(198.261335, 203.516252)"><g><path d="M 3.34375 0 L 14.308594 0 L 14.308594 -0.9375 L 13.4375 -0.9375 C 12.234375 -1.003906 10.027344 -1.335938 10.027344 -2.539062 L 10.027344 -23.265625 L 10.832031 -24 L 32.757812 -2.539062 C 34.164062 -1.269531 32.289062 -1.003906 30.886719 -0.9375 L 29.816406 -0.9375 L 29.816406 0 L 40.78125 0 L 40.78125 -0.9375 L 40.515625 -0.9375 C 39.914062 -0.9375 38.308594 -1.003906 36.835938 -1.9375 L 12.570312 -25.671875 L 32.425781 -44.59375 C 33.761719 -45.796875 36.035156 -46.128906 36.972656 -46.195312 L 37.90625 -46.195312 L 37.90625 -47.132812 L 27.210938 -47.132812 L 27.210938 -46.195312 L 28.144531 -46.195312 C 29.550781 -46.128906 32.023438 -45.929688 31.222656 -44.792969 L 10.027344 -24.535156 L 10.027344 -44.660156 C 10.027344 -45.796875 12.234375 -46.128906 13.4375 -46.261719 L 14.308594 -46.261719 L 14.308594 -47.199219 L 3.34375 -47.199219 L 3.34375 -46.261719 L 4.210938 -46.261719 C 5.414062 -46.128906 7.621094 -45.796875 7.621094 -44.660156 L 7.621094 -2.539062 C 7.621094 -1.335938 5.414062 -1.003906 4.210938 -0.9375 L 3.34375 -0.9375 Z M 3.34375 0 "/></g></g></g><g fill="#000000" fill-opacity="1"><g transform="translate(136.829297, 227.230498)"><g><path d="M 0.59375 -0.179688 L 0.59375 0 L 3.492188 0 C 4.125 0 4.707031 -0.226562 5.132812 -0.628906 C 5.574219 -1.046875 5.824219 -1.59375 5.824219 -2.210938 C 5.824219 -2.828125 5.574219 -3.386719 5.132812 -3.804688 C 4.8125 -4.101562 4.410156 -4.300781 3.96875 -4.386719 C 4.253906 -4.480469 4.503906 -4.636719 4.730469 -4.835938 C 5.144531 -5.207031 5.371094 -5.75 5.371094 -6.324219 C 5.371094 -6.894531 5.132812 -7.425781 4.730469 -7.808594 C 4.324219 -8.1875 3.765625 -8.402344 3.183594 -8.402344 L 0.59375 -8.402344 L 0.59375 -8.222656 L 0.75 -8.222656 C 0.960938 -8.210938 1.355469 -8.152344 1.355469 -7.9375 L 1.355469 -0.464844 C 1.355469 -0.25 0.960938 -0.191406 0.738281 -0.179688 Z M 3.28125 -4.421875 L 1.78125 -4.421875 L 1.78125 -7.9375 C 1.78125 -8.152344 2.175781 -8.210938 2.390625 -8.222656 L 3.183594 -8.222656 C 4.136719 -8.222656 4.980469 -7.332031 4.980469 -6.324219 C 4.980469 -5.347656 4.195312 -4.480469 3.28125 -4.421875 Z M 3.492188 -0.179688 L 2.390625 -0.179688 C 2.175781 -0.191406 1.78125 -0.25 1.78125 -0.464844 L 1.78125 -4.253906 L 3.171875 -4.253906 L 3.171875 -4.242188 L 3.183594 -4.242188 C 3.21875 -4.242188 3.257812 -4.253906 3.28125 -4.253906 L 3.480469 -4.253906 L 3.480469 -4.242188 L 3.492188 -4.242188 C 3.992188 -4.242188 4.480469 -4.027344 4.847656 -3.625 C 5.207031 -3.246094 5.417969 -2.722656 5.417969 -2.210938 C 5.417969 -1.699219 5.207031 -1.1875 4.847656 -0.796875 C 4.480469 -0.390625 3.992188 -0.179688 3.492188 -0.179688 Z M 3.492188 -0.179688 "/></g></g></g><g fill="#000000" fill-opacity="1"><g transform="translate(143.246204, 227.230498)"><g><path d="M 0.285156 -0.179688 L 0.285156 0 L 2.234375 0 L 2.234375 -0.179688 C 1.816406 -0.179688 1.472656 -0.25 1.472656 -0.464844 L 1.472656 -3.777344 L 3.101562 -3.777344 C 3.601562 -3.777344 4.253906 -3.054688 4.410156 -2.460938 C 4.683594 -1.4375 4.777344 -0.6875 5.667969 0 L 6.359375 0 L 6.359375 -0.179688 C 5.453125 -0.179688 5.074219 -1.605469 4.894531 -2.351562 C 4.683594 -3.234375 4.183594 -3.519531 3.578125 -3.816406 C 4.753906 -4.003906 5.65625 -4.882812 5.65625 -6.132812 C 5.65625 -7.546875 4.503906 -8.402344 3.089844 -8.402344 L 0.285156 -8.402344 L 0.285156 -8.222656 C 0.699219 -8.222656 1.046875 -8.152344 1.046875 -7.949219 L 1.046875 -0.464844 C 1.046875 -0.25 0.699219 -0.179688 0.285156 -0.179688 Z M 3.089844 -3.945312 L 1.472656 -3.945312 L 1.472656 -7.9375 C 1.472656 -8.152344 1.867188 -8.210938 2.078125 -8.222656 L 3.089844 -8.222656 C 4.265625 -8.222656 5.230469 -7.308594 5.230469 -6.132812 C 5.230469 -4.945312 4.265625 -3.945312 3.089844 -3.945312 Z M 3.089844 -3.945312 "/></g></g></g><g fill="#000000" fill-opacity="1"><g transform="translate(150.376099, 227.230498)"><g><path d="M 4.136719 0.105469 C 5.679688 0.105469 6.796875 -1.152344 6.796875 -2.886719 L 6.796875 -7.949219 C 6.796875 -8.164062 7.191406 -8.222656 7.402344 -8.234375 L 7.546875 -8.234375 L 7.546875 -8.414062 L 5.871094 -8.414062 L 5.871094 -8.234375 L 6.011719 -8.234375 C 6.226562 -8.222656 6.621094 -8.164062 6.621094 -7.949219 L 6.621094 -2.886719 C 6.621094 -1.257812 5.585938 -0.0585938 4.136719 -0.0585938 C 3.554688 -0.0585938 3.089844 -0.25 2.601562 -0.714844 C 2.089844 -1.234375 1.78125 -2.019531 1.78125 -2.886719 L 1.78125 -7.960938 C 1.792969 -8.164062 2.175781 -8.222656 2.390625 -8.234375 L 2.542969 -8.234375 L 2.542969 -8.414062 L 0.59375 -8.414062 L 0.59375 -8.234375 L 0.75 -8.234375 C 0.960938 -8.222656 1.332031 -8.164062 1.355469 -7.972656 L 1.355469 -2.886719 C 1.355469 -1.082031 2.519531 0.105469 4.136719 0.105469 Z M 4.136719 0.105469 "/></g></g></g><g fill="#000000" fill-opacity="1"><g transform="translate(158.516064, 227.230498)"><g><path d="M 0.59375 -0.167969 L 0.59375 0 L 2.28125 0 L 2.28125 -0.167969 C 1.867188 -0.167969 1.519531 -0.238281 1.519531 -0.453125 L 1.519531 -8.011719 L 6.59375 0 L 6.75 0 L 6.75 -7.949219 C 6.75 -8.152344 7.09375 -8.234375 7.511719 -8.234375 L 7.511719 -8.402344 L 5.824219 -8.402344 L 5.824219 -8.234375 C 6.238281 -8.234375 6.582031 -8.152344 6.582031 -7.949219 L 6.582031 -0.84375 L 1.769531 -8.402344 L 0.59375 -8.402344 L 0.59375 -8.234375 C 1.011719 -8.234375 1.34375 -8.152344 1.34375 -7.949219 L 1.34375 -0.453125 C 1.34375 -0.238281 1.011719 -0.167969 0.59375 -0.167969 Z M 0.59375 -0.167969 "/></g></g></g><g fill="#000000" fill-opacity="1"><g transform="translate(166.620378, 227.230498)"><g><path d="M 4.136719 0.179688 L 4.242188 0.179688 C 6.226562 0.179688 7.785156 -1.878906 7.785156 -4.136719 C 7.785156 -6.382812 6.203125 -8.449219 4.242188 -8.449219 L 4.136719 -8.449219 C 2.1875 -8.449219 0.59375 -6.417969 0.59375 -4.136719 C 0.59375 -1.890625 2.1875 0.179688 4.136719 0.179688 Z M 3.125 -0.238281 C 1.902344 -0.832031 1.023438 -2.4375 1.023438 -4.136719 C 1.023438 -6 2.089844 -7.738281 3.492188 -8.175781 C 3.71875 -8.246094 3.957031 -8.269531 4.183594 -8.269531 C 4.421875 -8.269531 4.648438 -8.234375 4.882812 -8.175781 C 6.285156 -7.761719 7.34375 -6 7.34375 -4.136719 C 7.34375 -2.4375 6.476562 -0.832031 5.253906 -0.238281 C 4.527344 0.0703125 3.851562 0.0703125 3.125 -0.238281 Z M 3.125 -0.238281 "/></g></g></g><g fill="#000000" fill-opacity="1"><g transform="translate(174.998005, 227.230498)"><g/></g></g><g fill="#000000" fill-opacity="1"><g transform="translate(179.751267, 227.230498)"><g><path d="M 6.679688 0 C 6.976562 -0.0117188 7.308594 -0.203125 7.675781 -0.878906 L 7.535156 -0.960938 C 7.390625 -0.6875 7.023438 -0.285156 6.679688 -0.285156 C 6.261719 -0.285156 5.835938 -0.902344 5.441406 -1.59375 C 5.738281 -2.019531 5.941406 -2.425781 6.050781 -2.863281 L 6.050781 -2.875 C 6.179688 -3.292969 6.59375 -3.28125 6.808594 -3.28125 L 6.964844 -3.28125 L 6.964844 -3.457031 L 5.015625 -3.457031 L 5.015625 -3.28125 L 5.15625 -3.28125 C 5.859375 -3.28125 5.882812 -2.996094 5.859375 -2.863281 C 5.738281 -2.496094 5.550781 -2.078125 5.347656 -1.769531 C 5.085938 -2.234375 4.0625 -4.21875 3.683594 -4.835938 L 3.46875 -5.179688 C 5.085938 -6.214844 5.691406 -7.152344 4.695312 -8.09375 C 4.015625 -8.722656 2.746094 -8.390625 2.402344 -7.59375 C 2.042969 -6.785156 2.566406 -5.8125 3.019531 -5.097656 C 1.9375 -4.386719 1.210938 -3.980469 0.855469 -3.207031 C 0.285156 -1.984375 0.664062 -0.535156 1.867188 -0.0820312 C 2.984375 0.332031 4.148438 -0.105469 5.167969 -1.246094 L 5.335938 -0.949219 C 5.691406 -0.320312 6.191406 0.0234375 6.679688 0 Z M 3.375 -5.324219 C 2.984375 -5.953125 2.53125 -6.808594 2.792969 -7.425781 C 3.136719 -8.246094 3.980469 -8.496094 4.574219 -7.902344 C 5.191406 -7.285156 4.742188 -6.191406 3.375 -5.324219 Z M 5.0625 -1.414062 C 3.945312 -0.0585938 1.53125 0.15625 1.140625 -1.652344 C 0.820312 -3.125 1.925781 -4.207031 3.113281 -4.957031 L 3.316406 -4.609375 C 3.742188 -3.886719 4.683594 -2.066406 5.0625 -1.414062 Z M 5.0625 -1.414062 "/></g></g></g><g fill="#000000" fill-opacity="1"><g transform="translate(188.021946, 227.230498)"><g/></g></g><g fill="#000000" fill-opacity="1"><g transform="translate(192.775209, 227.230498)"><g><path d="M 0.59375 0 L 2.542969 0 L 2.542969 -0.167969 L 2.390625 -0.167969 C 2.175781 -0.179688 1.78125 -0.238281 1.78125 -0.453125 L 1.78125 -4.136719 L 1.925781 -4.265625 L 5.824219 -0.453125 C 6.074219 -0.226562 5.738281 -0.179688 5.492188 -0.167969 L 5.300781 -0.167969 L 5.300781 0 L 7.25 0 L 7.25 -0.167969 L 7.203125 -0.167969 C 7.09375 -0.167969 6.808594 -0.179688 6.546875 -0.34375 L 2.234375 -4.5625 L 5.765625 -7.925781 C 6 -8.140625 6.40625 -8.199219 6.570312 -8.210938 L 6.738281 -8.210938 L 6.738281 -8.378906 L 4.835938 -8.378906 L 4.835938 -8.210938 L 5.003906 -8.210938 C 5.253906 -8.199219 5.691406 -8.164062 5.550781 -7.960938 L 1.78125 -4.363281 L 1.78125 -7.9375 C 1.78125 -8.140625 2.175781 -8.199219 2.390625 -8.222656 L 2.542969 -8.222656 L 2.542969 -8.390625 L 0.59375 -8.390625 L 0.59375 -8.222656 L 0.75 -8.222656 C 0.960938 -8.199219 1.355469 -8.140625 1.355469 -7.9375 L 1.355469 -0.453125 C 1.355469 -0.238281 0.960938 -0.179688 0.75 -0.167969 L 0.59375 -0.167969 Z M 0.59375 0 "/></g></g></g><g fill="#000000" fill-opacity="1"><g transform="translate(200.558679, 227.230498)"><g><path d="M 0.59375 -0.167969 L 0.59375 0 L 2.542969 0 L 2.542969 -0.167969 C 2.164062 -0.167969 1.558594 -0.203125 1.664062 -0.453125 L 1.652344 -0.453125 L 2.886719 -3.636719 L 6.121094 -3.636719 L 7.34375 -0.453125 C 7.4375 -0.214844 7.035156 -0.167969 6.65625 -0.167969 L 6.65625 0 L 8.605469 0 L 8.605469 -0.167969 C 8.257812 -0.167969 7.9375 -0.214844 7.820312 -0.414062 L 4.730469 -8.390625 L 4.730469 -8.402344 L 4.550781 -8.402344 L 1.460938 -0.441406 C 1.34375 -0.191406 0.925781 -0.167969 0.59375 -0.167969 Z M 6.050781 -3.804688 L 2.960938 -3.804688 L 4.503906 -7.796875 Z M 6.050781 -3.804688 "/></g></g></g><g fill="#000000" fill-opacity="1"><g transform="translate(209.756242, 227.230498)"><g><path d="M 0.59375 -0.167969 L 0.59375 0 L 2.28125 0 L 2.28125 -0.167969 C 1.867188 -0.167969 1.519531 -0.238281 1.519531 -0.453125 L 1.519531 -7.984375 L 4.730469 -0.0585938 L 4.765625 -0.0585938 L 7.9375 -8.046875 L 7.9375 -0.453125 C 7.9375 -0.238281 7.59375 -0.167969 7.179688 -0.167969 L 7.179688 0 L 9.128906 0 L 9.128906 -0.167969 C 8.710938 -0.167969 8.367188 -0.238281 8.367188 -0.453125 L 8.367188 -7.949219 C 8.367188 -8.152344 8.710938 -8.234375 9.128906 -8.234375 L 9.128906 -8.402344 L 7.890625 -8.402344 L 4.882812 -0.808594 L 1.816406 -8.402344 L 0.59375 -8.402344 L 0.59375 -8.234375 C 1.011719 -8.234375 1.34375 -8.152344 1.355469 -7.949219 L 1.355469 -0.453125 C 1.355469 -0.238281 1.011719 -0.167969 0.59375 -0.167969 Z M 0.59375 -0.167969 "/></g></g></g><g fill="#000000" fill-opacity="1"><g transform="translate(219.476669, 227.230498)"><g><path d="M 0.59375 -0.167969 L 0.59375 0 L 2.542969 0 L 2.542969 -0.167969 L 2.390625 -0.167969 C 2.175781 -0.179688 1.78125 -0.238281 1.78125 -0.453125 L 1.78125 -7.9375 C 1.78125 -8.140625 2.175781 -8.199219 2.390625 -8.222656 L 2.542969 -8.222656 L 2.542969 -8.390625 L 0.59375 -8.390625 L 0.59375 -8.222656 L 0.738281 -8.222656 C 0.960938 -8.199219 1.34375 -8.140625 1.355469 -7.9375 L 1.355469 -0.453125 C 1.355469 -0.238281 0.960938 -0.179688 0.738281 -0.167969 Z M 0.59375 -0.167969 "/></g></g></g><g fill="#000000" fill-opacity="1"><g transform="translate(222.61382, 227.230498)"><g><path d="M 0.59375 -0.179688 L 0.59375 0 L 5.300781 0 L 5.765625 -0.761719 L 5.5625 -0.761719 L 5.5625 -0.75 C 5.527344 -0.6875 5.191406 -0.179688 4.847656 -0.179688 L 1.769531 -0.179688 L 1.769531 -7.9375 C 1.769531 -8.234375 2.53125 -8.234375 2.53125 -8.234375 L 2.53125 -8.402344 L 0.59375 -8.402344 L 0.59375 -8.234375 C 0.59375 -8.234375 1.34375 -8.234375 1.34375 -7.9375 L 1.34375 -0.464844 C 1.34375 -0.25 0.949219 -0.191406 0.738281 -0.179688 Z M 0.59375 -0.179688 "/></g></g></g><g fill="#000000" fill-opacity="1"><g transform="translate(228.971309, 227.230498)"><g><path d="M 0.59375 -0.167969 L 0.59375 0 L 2.542969 0 L 2.542969 -0.167969 C 2.164062 -0.167969 1.558594 -0.203125 1.664062 -0.453125 L 1.652344 -0.453125 L 2.886719 -3.636719 L 6.121094 -3.636719 L 7.34375 -0.453125 C 7.4375 -0.214844 7.035156 -0.167969 6.65625 -0.167969 L 6.65625 0 L 8.605469 0 L 8.605469 -0.167969 C 8.257812 -0.167969 7.9375 -0.214844 7.820312 -0.414062 L 4.730469 -8.390625 L 4.730469 -8.402344 L 4.550781 -8.402344 L 1.460938 -0.441406 C 1.34375 -0.191406 0.925781 -0.167969 0.59375 -0.167969 Z M 6.050781 -3.804688 L 2.960938 -3.804688 L 4.503906 -7.796875 Z M 6.050781 -3.804688 "/></g></g></g><path stroke-linecap="butt" transform="matrix(0.000000001309, 0.75, -0.75, 0.000000001309, 187.61693, 155.208153)" fill="none" stroke-linejoin="miter" d="M -0.00149568 0.499656 L 66.701634 0.499657 " stroke="#000000" stroke-width="1" stroke-opacity="1" stroke-miterlimit="4"/></svg>